 <svg
    xmlns="http://www.w3.org/2000/svg"
    xmlns:xlink="http://www.w3.org/1999/xlink"
    width="19px"
    height="25px"
    viewBox="0 0 19 25"
    version="1.1"
    class="icon-svg icon-svg--nutrition"
>
    <!-- Generator: Sketch 56.3 (81716) - https://sketch.com -->
    <title>icon-nutrition</title>
    <desc>Created with Sketch.</desc>
    <g
    id="Page-1"
    stroke="none"
    stroke-width="1"
    fill="none"
    fill-rule="evenodd"
    >
    <g
        id="Recipe-Detail_1440-Copy"
        transform="translate(-282.000000, -283.000000)"
        fill="#002C9B"
        fill-rule="nonzero"
    >
        <path
        d="M290.852468,292.25441 C290.810403,290.780509 289.991148,290.180123 288.875,289.25 C288.458333,288.902778 288.598499,288.541039 289.295496,288.164785 C289.569176,288.010967 289.785122,288.011248 290.031052,288.197344 C291.479707,289.295463 292.134442,290.476405 292.399951,291.968107 C292.402259,291.981074 292.404538,292.043876 292.406788,292.116547 C294.046122,291.635489 296.919676,290.62344 298.979167,292.257718 C301.198671,294.019824 300.976702,297.411701 300.397596,300.274765 C299.713877,303.658339 298.285352,305.401502 296.634612,307.25131 C295.015858,309.062197 293.216976,307.018819 291.423865,307.018819 C291.40679,307.018819 291.391639,307.009737 291.375285,307.007402 C291.359172,307.009737 291.34354,307.018819 291.326706,307.018819 C289.533595,307.018819 287.734952,309.062197 286.115958,307.25131 C284.465218,305.401502 283.036453,303.658339 282.352252,300.274765 C281.773147,297.411701 281.676709,294.019824 283.896454,292.257718 C286.187833,290.43926 289.389015,291.897212 290.852468,292.25441 Z M299.88316,283.412265 C299.280805,284.664627 295.667579,291.612932 291.312843,287.899497 C290.759735,282.010127 298.43753,282.977318 299.774276,283.189498 C299.883387,283.207218 299.933024,283.308621 299.88316,283.412265 Z"
        id="icon-nutrition"
        ></path>
    </g>
    </g>
</svg>